<?xml version="1.0" standalone="no"?>
<!DOCTYPE svg PUBLIC "-//W3C//DTD SVG 20010904//EN"
 "http://www.w3.org/TR/2001/REC-SVG-20010904/DTD/svg10.dtd">
<svg version="1.0" xmlns="http://www.w3.org/2000/svg"
 width="640.000000pt" height="1280.000000pt" viewBox="0 0 640.000000 1280.000000"
 preserveAspectRatio="xMidYMid meet">
<metadata>
Created by potrace 1.15, written by Peter Selinger 2001-2017
</metadata>
<g transform="translate(0.000000,1280.000000) scale(0.100000,-0.100000)"
fill="#4caf50" stroke="none">
<path d="M2695 12786 c-99 -23 -214 -72 -345 -147 -184 -105 -476 -293 -553
-357 -192 -156 -408 -444 -569 -758 l-63 -122 16 -34 c16 -32 39 -43 525 -251
280 -120 514 -217 521 -217 6 0 92 80 190 178 253 254 300 275 608 276 179 1
181 1 275 -32 240 -84 374 -196 560 -471 l64 -93 51 4 c57 5 67 10 520 281
138 82 285 172 328 201 78 50 79 52 74 87 -9 72 -197 408 -297 535 -113 141
-321 321 -615 532 -290 207 -537 316 -849 373 -145 26 -361 34 -441 15z"/>
<path d="M3235 11052 c-59 -7 -60 -13 -57 -206 2 -129 6 -176 15 -176 7 0 54
-16 106 -36 91 -36 167 -86 411 -275 68 -53 84 -56 107 -22 13 20 9 32 -56
157 -91 177 -150 261 -258 368 -83 82 -189 171 -223 187 -8 4 -28 5 -45 3z"/>
<path d="M2704 10941 c-32 -22 -80 -59 -105 -84 -91 -87 -203 -310 -259 -516
-43 -159 -39 -191 22 -191 38 0 71 32 186 180 76 97 114 137 172 178 171 120
184 132 199 194 13 55 12 60 -21 165 l-33 108 -51 3 c-45 3 -57 -2 -110 -37z"/>
<path d="M1017 10939 c-8 -13 -20 -46 -26 -74 -7 -27 -41 -156 -76 -285 -35
-129 -67 -260 -70 -291 -10 -79 -2 -84 137 -93 95 -6 122 -12 168 -35 30 -16
84 -33 120 -40 36 -6 128 -23 205 -36 77 -14 192 -41 255 -60 63 -19 132 -35
153 -35 60 0 97 50 97 133 0 63 55 276 90 351 37 78 33 90 -37 128 -26 14
-226 99 -443 188 -375 154 -399 163 -476 168 -78 4 -82 4 -97 -19z"/>
<path d="M5001 10871 c-309 -168 -796 -422 -845 -441 -27 -10 -28 -13 -23 -56
2 -26 14 -58 26 -73 40 -50 72 -123 132 -304 71 -213 72 -215 103 -223 30 -7
66 12 134 70 36 31 63 46 82 46 16 0 97 31 182 69 172 77 389 169 461 195 26
10 52 26 57 36 18 35 10 98 -24 187 -19 48 -65 165 -101 258 -94 241 -118 272
-184 236z"/>
<path d="M3235 10170 c-3 -5 -1 -36 5 -67 5 -32 14 -155 19 -273 10 -217 14
-250 34 -250 6 0 123 -60 261 -134 332 -177 570 -296 594 -296 26 0 42 21 49
65 5 30 1 41 -22 65 -27 28 -28 33 -29 137 -1 107 -1 109 -54 230 -50 117
-118 235 -149 260 -8 6 -21 9 -29 6 -34 -13 -135 28 -355 143 -190 100 -244
124 -277 124 -22 0 -44 -4 -47 -10z"/>
<path d="M2510 9829 l-355 -319 -6 -158 c-16 -389 -15 -474 3 -485 26 -17 46
0 691 558 127 109 137 126 137 224 0 73 -40 474 -49 482 -3 4 -19 9 -36 12
-28 6 -55 -16 -385 -314z"/>
<path d="M774 9763 c-39 -42 -49 -67 -83 -207 -43 -179 -61 -295 -61 -403 l0
-93 39 -28 c36 -26 51 -30 146 -36 72 -4 153 -19 248 -44 l142 -37 250 1 c372
1 364 -5 376 256 4 95 13 215 18 266 11 106 8 120 -25 127 -13 3 -35 7 -47 10
-13 2 -71 11 -129 19 -58 9 -204 40 -324 70 -218 55 -259 67 -364 105 -30 11
-79 20 -108 21 -45 0 -57 -4 -78 -27z"/>
<path d="M5365 9710 c-94 -14 -129 -29 -150 -63 -20 -32 -21 -32 -95 -29 -123
5 -331 -57 -480 -143 -41 -23 -85 -46 -97 -49 -31 -10 -73 -63 -73 -92 0 -14
7 -39 17 -57 12 -24 18 -76 24 -202 13 -270 25 -305 106 -305 54 0 78 12 97
47 12 23 24 29 82 39 38 7 93 13 122 13 29 1 115 14 190 31 166 36 356 70 391
70 39 0 111 40 133 74 14 24 18 42 14 76 -25 205 -79 497 -101 547 -21 47 -71
59 -180 43z"/>
<path d="M3333 9130 c-36 -15 -40 -34 -26 -143 8 -56 17 -154 21 -217 6 -80
13 -123 25 -141 19 -28 809 -564 857 -581 33 -11 70 5 89 40 6 12 4 120 -5
307 -13 274 -15 291 -35 308 -12 9 -31 17 -43 17 -24 0 -751 373 -782 401 -21
20 -64 24 -101 9z"/>
<path d="M2882 8983 c-673 -583 -751 -654 -746 -681 3 -15 20 -116 38 -225 19
-108 39 -204 46 -212 29 -35 55 -20 319 188 120 95 280 221 355 280 174 137
174 137 164 313 -15 252 -27 376 -39 390 -23 28 -58 15 -137 -53z"/>
<path d="M5520 8615 c-25 -7 -67 -23 -95 -36 -43 -19 -68 -23 -180 -24 -103
-1 -143 -6 -190 -22 -33 -11 -82 -24 -110 -27 -61 -9 -261 -61 -315 -82 -26
-10 -42 -24 -46 -39 -3 -12 -4 -126 -2 -253 2 -189 6 -234 18 -246 22 -21 112
-35 163 -25 23 5 57 12 74 15 18 4 46 1 63 -6 23 -10 102 -10 377 0 191 6 365
16 386 21 34 9 42 17 64 65 l25 55 -17 242 c-9 141 -22 259 -31 282 -10 28
-27 49 -56 68 -46 30 -62 31 -128 12z"/>
<path d="M650 8573 c0 -5 9 -183 20 -398 11 -214 20 -401 20 -414 l0 -24 258
6 c274 6 373 18 725 87 178 35 205 43 213 65 4 8 -5 57 -20 108 -25 89 -38
193 -51 425 l-7 112 -27 0 c-14 0 -255 9 -536 20 -578 22 -595 23 -595 13z"/>
<path d="M3412 8057 c-21 -22 -21 -29 -17 -260 3 -231 4 -238 27 -265 27 -34
561 -381 642 -418 71 -32 185 -44 204 -21 34 40 62 476 34 524 -23 41 -153
123 -353 223 -213 107 -494 240 -507 240 -5 0 -18 -10 -30 -23z"/>
<path d="M2699 7747 l-334 -293 -3 -47 c-3 -42 26 -170 84 -373 17 -60 44 -79
86 -60 36 15 590 508 607 540 12 21 12 63 4 239 -12 253 -23 287 -92 287 -10
0 -168 -132 -352 -293z"/>
<path d="M1353 7428 l-543 -91 0 -34 c0 -18 43 -175 95 -348 117 -386 127
-416 147 -429 12 -7 136 32 525 169 678 238 628 219 631 241 3 20 -176 496
-206 548 -16 27 -24 31 -62 33 -25 1 -289 -39 -587 -89z"/>
<path d="M4720 7511 c-74 -3 -140 -10 -147 -14 -30 -19 -38 -82 -38 -312 0
-264 -1 -262 90 -308 47 -24 61 -26 225 -31 178 -4 341 -28 535 -78 81 -20
175 -26 232 -14 29 7 31 10 26 41 -4 23 4 61 26 122 28 79 59 224 91 427 14
91 2 129 -50 156 -47 24 -117 26 -167 5 -43 -18 -95 -19 -111 -3 -14 14 -484
20 -712 9z"/>
<path d="M3454 6985 c-11 -28 -13 -74 -8 -257 4 -136 11 -229 18 -239 6 -9 58
-52 116 -96 58 -44 170 -130 250 -191 188 -146 237 -160 259 -74 22 83 61 323
61 372 0 63 -11 85 -53 106 -18 9 -108 76 -202 149 -235 182 -359 265 -396
265 -25 0 -33 -6 -45 -35z"/>
<path d="M2940 6854 c-96 -64 -202 -132 -235 -151 -68 -40 -75 -48 -75 -83 0
-28 210 -444 223 -443 5 1 88 71 186 157 l177 155 -19 228 c-11 125 -22 231
-26 234 -3 4 -17 9 -31 12 -20 5 -59 -16 -200 -109z"/>
<path d="M1865 6377 c-254 -117 -502 -231 -552 -254 l-91 -42 164 -363 c91
-199 167 -364 168 -365 2 -2 171 96 377 218 206 121 445 262 532 311 136 79
157 94 157 116 0 31 -270 592 -284 591 -6 0 -218 -96 -471 -212z"/>
<path d="M4408 6479 c-15 -8 -18 -24 -18 -81 0 -54 -8 -97 -34 -177 -52 -161
-89 -337 -76 -361 12 -22 41 -40 65 -40 9 0 150 -74 313 -163 569 -313 615
-337 660 -337 49 0 95 35 111 83 35 106 123 603 125 705 1 89 -1 92 -123 120
-48 11 -130 39 -182 61 -103 43 -284 90 -587 151 -108 22 -206 42 -217 45 -11
2 -28 -1 -37 -6z"/>
<path d="M1520 3952 c0 -53 -31 -147 -70 -212 -29 -49 -44 -91 -60 -170 -12
-58 -37 -142 -57 -186 -27 -63 -34 -92 -31 -130 l3 -49 45 -7 c25 -4 245 -17
490 -28 245 -11 472 -23 506 -26 l60 -5 12 65 c7 35 17 113 23 173 5 59 17
154 25 210 18 128 18 165 0 208 -10 24 -23 36 -43 40 -15 4 -71 19 -123 35
-168 50 -236 63 -275 50 -39 -13 -129 -3 -319 36 -65 13 -134 24 -152 24 -31
0 -34 -3 -34 -28z"/>
<path d="M3995 3589 c-8 -12 -20 -126 -50 -472 -15 -164 -15 -181 0 -204 9
-13 27 -28 40 -33 14 -5 170 -34 347 -65 178 -30 397 -68 488 -85 90 -16 172
-30 183 -30 30 0 64 43 71 91 13 91 56 516 58 580 3 75 -8 96 -56 104 -17 3
-249 31 -516 61 -267 31 -501 58 -521 61 -23 3 -39 0 -44 -8z"/>
<path d="M2701 3425 c-44 -40 -57 -80 -67 -198 -12 -141 22 -227 123 -306 73
-59 143 -91 197 -91 34 0 53 20 40 41 -3 6 4 72 17 148 13 82 19 151 15 172
-5 25 -36 64 -120 152 -130 134 -142 139 -205 82z"/>
<path d="M3615 3313 c-16 -8 -41 -26 -55 -38 -37 -33 -64 -45 -105 -45 -37 0
-103 -28 -123 -52 -6 -8 -14 -82 -18 -180 l-7 -166 28 -26 c44 -40 87 -35 208
25 56 28 115 60 130 71 27 19 27 21 11 39 -15 17 -16 29 -5 119 15 132 14 243
-1 258 -15 15 -26 15 -63 -5z"/>
<path d="M1292 2877 c-61 -19 -76 -43 -94 -152 -54 -322 -53 -311 -36 -337
l16 -25 339 -7 c186 -3 413 -9 504 -12 144 -6 174 -4 224 11 56 18 59 21 87
80 28 60 29 67 26 190 -4 166 -1 163 -195 181 -76 7 -187 24 -248 38 -179 40
-541 60 -623 33z"/>
<path d="M2617 2600 c-14 -11 -35 -45 -46 -76 -28 -72 -27 -138 2 -189 36 -64
168 -154 256 -174 37 -8 45 -7 62 10 16 16 19 33 18 117 0 53 -3 104 -7 114
-4 9 -47 62 -96 117 -82 94 -91 101 -126 101 -22 0 -48 -8 -63 -20z"/>
<path d="M3902 2614 c-56 -25 -95 -373 -50 -457 13 -25 56 -42 153 -61 44 -9
224 -55 399 -102 347 -93 420 -108 479 -94 79 17 108 66 142 243 25 124 31
202 17 224 -10 15 -114 43 -162 43 -39 0 -101 11 -375 69 -330 69 -466 101
-494 115 -32 17 -91 27 -109 20z"/>
<path d="M3395 2427 c-141 -57 -146 -62 -168 -150 -17 -67 -18 -81 -6 -119 13
-40 17 -43 53 -46 68 -6 214 48 274 101 20 19 22 29 22 122 0 65 -4 105 -12
113 -21 21 -80 13 -163 -21z"/>
<path d="M2186 2053 c-4 -5 -233 -10 -509 -13 l-502 -5 -17 -60 c-11 -40 -16
-98 -16 -175 0 -151 12 -367 20 -376 4 -4 81 12 170 35 90 22 340 86 557 140
217 55 398 106 403 113 11 16 0 241 -13 285 -14 44 -70 78 -93 56z"/>
<path d="M2555 1876 c-31 -30 -35 -39 -35 -84 0 -71 30 -160 83 -244 66 -106
108 -148 146 -148 51 0 64 45 59 200 -3 74 -10 136 -18 152 -13 27 -147 138
-182 151 -12 4 -29 -5 -53 -27z"/>
<path d="M3405 1833 c-31 -8 -192 -140 -213 -176 -13 -21 -24 -68 -32 -140
-13 -114 -9 -167 15 -187 23 -19 88 6 144 56 53 48 71 89 102 233 6 30 20 72
30 95 25 55 25 102 0 116 -11 5 -21 9 -23 9 -2 -1 -12 -4 -23 -6z"/>
<path d="M3831 1829 c-66 -13 -76 -27 -91 -132 -16 -115 -14 -155 9 -187 20
-28 91 -66 140 -75 60 -11 120 -45 326 -184 267 -179 434 -283 449 -279 25 6
100 104 132 173 44 94 104 281 104 322 0 60 -38 87 -185 128 -71 20 -285 81
-475 136 -190 55 -349 101 -355 103 -5 1 -30 -1 -54 -5z"/>
<path d="M1940 1309 c-179 -60 -386 -128 -460 -150 -179 -53 -204 -65 -208
-106 -5 -51 74 -239 123 -292 34 -37 432 -377 544 -464 114 -89 463 -217 746
-272 190 -38 881 -26 1009 16 82 27 248 120 414 230 195 130 243 170 313 257
35 42 78 94 96 115 40 45 41 66 6 99 -16 14 -190 119 -388 234 -198 115 -380
227 -405 250 -60 55 -80 64 -139 64 -48 0 -54 -3 -118 -61 -119 -108 -216
-139 -433 -139 -155 0 -198 6 -341 51 -118 36 -143 56 -203 154 -50 82 -97
114 -178 121 -47 3 -91 -9 -378 -107z"/>
</g>
</svg>
